<svg xmlns="http://www.w3.org/2000/svg" width="146" height="44" viewBox="0 0 146 44">
  <g id="Group_50" data-name="Group 50" transform="translate(-400 -90)">
    <g id="Rectangle_6" data-name="Rectangle 6" transform="translate(400 90)" fill="#fff" stroke="#c1c1c1" stroke-width="1">
      <rect width="146" height="44" rx="5" stroke="none"/>
      <rect x="0.5" y="0.5" width="145" height="43" rx="4.5" fill="none"/>
    </g>
    <path id="appstore" d="M16.864,1A5.886,5.886,0,0,0,13.01,2.975a5.452,5.452,0,0,0-1.389,4.035A4.854,4.854,0,0,0,15.5,5.164,5.734,5.734,0,0,0,16.865,1Zm-.371,26.04c1.783-.033,2.912-1.613,4-3.2a14.367,14.367,0,0,0,1.8-3.681l.009-.028-.007,0a5.753,5.753,0,0,1-3.5-5.27A5.889,5.889,0,0,1,21.6,9.9l.021-.014a6.118,6.118,0,0,0-4.786-2.581,7.525,7.525,0,0,0-3.442.736,5.073,5.073,0,0,1-1.568.458,5.017,5.017,0,0,1-1.621-.464,7.141,7.141,0,0,0-2.7-.671A6.405,6.405,0,0,0,2.1,10.636c-2.308,3.99-.592,9.9,1.657,13.138,1.1,1.582,2.411,3.363,4.131,3.3a5.018,5.018,0,0,0,1.882-.5,5.576,5.576,0,0,1,2.407-.565,5.24,5.24,0,0,1,2.294.548,4.479,4.479,0,0,0,2.027.487ZM39.44,5.1A2.678,2.678,0,0,1,36.6,8.111H34.582V2.1H36.6A2.678,2.678,0,0,1,39.44,5.1ZM35.332,7.435h1.221c1.362,0,2.12-.833,2.12-2.325s-.754-2.337-2.12-2.337H35.332V7.436Zm7.436.75a2,2,0,0,0,2-2.241,2.018,2.018,0,1,0-4.012,0A2,2,0,0,0,42.768,8.186ZM41.5,5.944c0,1.021.5,1.6,1.271,1.6s1.266-.583,1.266-1.6-.5-1.6-1.266-1.6S41.5,4.923,41.5,5.944Zm6.311,2.167.975-3.354H48.8l.979,3.354h.737l1.209-4.333h-.717L50.14,7.3h-.016l-.983-3.525h-.7L47.462,7.3h-.017l-.867-3.525h-.72l1.213,4.333Zm5.945-2.55v2.55h-.725V3.777h.683v.692h.017A1.45,1.45,0,0,1,55.1,3.7a1.427,1.427,0,0,1,1.5,1.6V8.111h-.725V5.428c0-.7-.329-1.084-1-1.084a1.106,1.106,0,0,0-1.13,1.217ZM59,8.111V2.1H58.27V8.111Zm5.49-2.167a2.019,2.019,0,1,1-4.013,0,2.019,2.019,0,1,1,4.013,0Zm-2,1.6c-.767,0-1.271-.583-1.271-1.6s.5-1.6,1.271-1.6,1.266.583,1.266,1.6S63.248,7.548,62.482,7.548Zm6.1-.183a1.581,1.581,0,0,1-1.392.821,1.3,1.3,0,0,1-1.442-1.3c0-.742.571-1.208,1.571-1.266l1.241-.071V5.186c0-.529-.35-.846-.95-.846a.91.91,0,0,0-1,.688h-.7A1.53,1.53,0,0,1,67.63,3.7c1.017,0,1.658.55,1.658,1.412v3H68.6V7.365h-.016Zm-1.229.2c-.521,0-.867-.27-.867-.683s.334-.667.917-.7l1.158-.071v.354A1.14,1.14,0,0,1,67.355,7.569Zm6.607-.192a1.549,1.549,0,0,1-1.4.809c-1.1,0-1.854-.883-1.854-2.241S71.454,3.7,72.545,3.7a1.522,1.522,0,0,1,1.379.779h.017V2.1h.725V8.111h-.691V7.378h-.013ZM72.7,7.548c-.767,0-1.25-.621-1.25-1.6s.484-1.6,1.25-1.6c.746,0,1.246.638,1.246,1.6S73.445,7.548,72.7,7.548Zm9.917-1.6a2.019,2.019,0,1,1-4.013,0,2.019,2.019,0,1,1,4.013,0Zm-2,1.6c-.767,0-1.271-.583-1.271-1.6s.5-1.6,1.271-1.6,1.266.583,1.266,1.6S81.38,7.548,80.613,7.548Zm4.169-1.987v2.55h-.725V3.777h.683v.692h.017A1.45,1.45,0,0,1,86.132,3.7a1.427,1.427,0,0,1,1.5,1.6V8.111h-.725V5.428c0-.7-.329-1.084-1-1.084a1.106,1.106,0,0,0-1.129,1.217Zm8.28,2.583a2.6,2.6,0,0,0,.459-.033V7.5a2.969,2.969,0,0,1-.3.021c-.37,0-.538-.179-.538-.575V4.374h.842v-.6h-.842V2.732h-.725V3.777h-.646v.6h.646V6.986c0,.833.308,1.158,1.1,1.158Zm2.707-2.558V8.111h-.725V2.1h.725V4.469h.017A1.433,1.433,0,0,1,97.161,3.7a1.463,1.463,0,0,1,1.525,1.608v2.8h-.725V5.444a.961.961,0,0,0-1.025-1.1,1.126,1.126,0,0,0-1.167,1.242Zm6.332,2.6a1.716,1.716,0,0,0,1.8-1.316h-.713a1.047,1.047,0,0,1-1.075.688,1.239,1.239,0,0,1-1.266-1.375V6.141h3.108V5.866A1.9,1.9,0,0,0,102.068,3.7a2,2,0,0,0-1.963,2.258,1.964,1.964,0,0,0,2,2.224Zm-1.246-2.612h2.354a1.158,1.158,0,0,0-1.154-1.242A1.218,1.218,0,0,0,100.855,5.574ZM75.845,22.542c0,2.172-1.709,3.538-4.392,3.538-2.6,0-4.336-1.3-4.449-3.354h1.741c.159,1.142,1.246,1.828,2.779,1.828,1.461,0,2.507-.75,2.507-1.781,0-.895-.607-1.453-2.147-1.788l-1.254-.264c-2.307-.487-3.354-1.557-3.354-3.218,0-1.973,1.733-3.33,4.185-3.33s4.113,1.382,4.168,3.394H73.9a2.181,2.181,0,0,0-2.46-1.869c-1.349,0-2.339.654-2.339,1.709,0,.839.591,1.4,2.084,1.717l1.262.263c2.411.512,3.4,1.478,3.4,3.154ZM36.067,25.888l1.055-3.115h4.392l1.054,3.115H44.46L40.3,14.364H38.366l-4.16,11.524h1.861Zm4.992-4.552H37.575l1.717-5.056h.048l1.717,5.056Zm6.189,3.17v4.161H45.523V17.486h1.669v1.446h.032A2.909,2.909,0,0,1,49.9,17.351c2.132,0,3.538,1.677,3.538,4.336s-1.4,4.345-3.506,4.345a2.865,2.865,0,0,1-2.644-1.526Zm2.2.064c-1.325,0-2.2-1.134-2.2-2.883,0-1.733.887-2.883,2.2-2.883,1.365,0,2.22,1.126,2.22,2.883S50.809,24.57,49.443,24.57Zm7.043-.064v4.161H54.762V17.486h1.669v1.446h.032a2.911,2.911,0,0,1,2.676-1.581c2.132,0,3.538,1.677,3.538,4.336s-1.4,4.345-3.506,4.345a2.865,2.865,0,0,1-2.644-1.526h-.04Zm2.2.064c-1.325,0-2.2-1.134-2.2-2.883,0-1.733.887-2.883,2.2-2.883,1.365,0,2.22,1.126,2.22,2.883S60.049,24.57,58.683,24.57Zm21.426,1.374a4.7,4.7,0,0,0,.958-.08V24.5a3.741,3.741,0,0,1-.567.04c-.7,0-1.022-.327-1.022-1.054V18.852h1.6V17.487h-1.6V15.5H77.745v1.989H76.523v1.365h1.222v4.823c0,1.621.663,2.268,2.364,2.268Zm9.974-4.257c0,2.707-1.581,4.36-3.985,4.36s-3.985-1.653-3.985-4.36S83.7,17.336,86.1,17.336s3.985,1.653,3.985,4.352ZM86.1,24.626c-1.35,0-2.229-1.07-2.229-2.939s.879-2.931,2.229-2.931,2.228,1.07,2.228,2.931S87.456,24.626,86.1,24.626Zm7.043-3.769v5.031H91.417v-8.4h1.645v1.429h.04a2.023,2.023,0,0,1,2.02-1.565,3.13,3.13,0,0,1,.591.064v1.6a2.46,2.46,0,0,0-.774-.1,1.733,1.733,0,0,0-1.8,1.933Zm7.227,5.191a3.392,3.392,0,0,0,3.618-2.627H102.35a1.9,1.9,0,0,1-1.941,1.23,2.2,2.2,0,0,1-2.261-2.428v-.1h5.934v-.59c0-2.548-1.453-4.193-3.786-4.193-2.371,0-3.889,1.756-3.889,4.392s1.493,4.321,3.961,4.321Zm-2.211-5.135h4.2a2.063,2.063,0,0,0-2.061-2.188A2.166,2.166,0,0,0,98.157,20.913Z" transform="translate(420 97.621)" fill="#37373c" fill-rule="evenodd"/>
  </g>
</svg>
