<svg xmlns="http://www.w3.org/2000/svg" viewBox="0 0 72 73" width="81" height="82"><title>human-resources-search-team-svg</title><style>		.s0 { fill: none;stroke: #b93b96;stroke-linecap: round;stroke-linejoin: round;stroke-width: 2.4 } 		.s1 { fill: none;stroke: #2265b0;stroke-linecap: round;stroke-linejoin: round;stroke-width: 2.4 } 	</style><path id="Layer" class="s0" d="m37 31.8c-3.8 1.7-8.1 2.1-12.2 1.3-4.1-0.8-7.8-2.9-10.7-5.9"></path><path id="Layer" class="s0" d="m12.4 33.5c0-6.8 5.5-12.4 12.3-12.4 6.9 0 12.4 5.6 12.4 12.4 0 6.9-5.5 12.4-12.4 12.4-6.8 0-12.3-5.5-12.3-12.4z"></path><path id="Layer" class="s0" d="m9.3 57.6c2.6-3.1 6.1-5.4 10-6.5 3.9-1 8-0.9 11.9 0.3 3.8 1.3 7.2 3.7 9.6 6.9 2.5 3.2 3.9 7.1 4.2 11.1"></path><path id="Layer" class="s0" d="m45 40.3c0-4.4 3.5-7.9 7.9-7.9 4.3 0 7.8 3.5 7.8 7.9 0 4.3-3.5 7.8-7.8 7.8-4.4 0-7.9-3.5-7.9-7.8z"></path><path id="Layer" class="s0" d="m40.7 58.1c1-2.1 2.5-3.9 4.4-5.3 2-1.3 4.2-2.1 6.5-2.3 2.4-0.3 4.7 0.1 6.9 1.1 2.1 1 3.9 2.5 5.3 4.4"></path><path id="Layer" class="s1" d="m2.2 36.9c0-18.6 15.2-33.8 33.8-33.8 18.6 0 33.7 15.2 33.7 33.8 0 18.6-15.1 33.7-33.7 33.7-18.6 0-33.8-15.1-33.8-33.7z"></path></svg>