<svg xmlns="http://www.w3.org/2000/svg" width="82" height="82" viewBox="0 0 82 82" fill="none"><path d="M53.8125 28.1872V5.1247C53.8112 4.71144 53.71 4.30463 53.5174 3.93896C53.3249 3.57329 53.0468 3.25961 52.7068 3.02467C52.3668 2.78974 51.975 2.64051 51.5649 2.58973C51.1548 2.53895 50.7384 2.58812 50.3514 2.73304L22.1639 17.3222C21.6765 17.5047 21.2562 17.8313 20.959 18.2585C20.6617 18.6858 20.5016 19.1934 20.5 19.7139V33.3122" stroke="#2265B0" stroke-width="2.4" stroke-linecap="round" stroke-linejoin="round"></path><path d="M46.125 17.9375H53.8125" stroke="#2265B0" stroke-width="2.4" stroke-linecap="round" stroke-linejoin="round"></path><path d="M41 28.1875H53.8125" stroke="#2265B0" stroke-width="2.4" stroke-linecap="round" stroke-linejoin="round"></path><path d="M2.5625 43.5625H10.25" stroke="#2265B0" stroke-width="2.4" stroke-linecap="round" stroke-linejoin="round"></path><path d="M2.5625 53.8125H15.375" stroke="#2265B0" stroke-width="2.4" stroke-linecap="round" stroke-linejoin="round"></path><path d="M28.1875 14.1992V2.56543" stroke="#2265B0" stroke-width="2.4" stroke-linecap="round" stroke-linejoin="round"></path><path d="M28.1875 79.4375V38.4375C28.1875 37.0783 27.6475 35.7747 26.6864 34.8136C25.7253 33.8525 24.4217 33.3125 23.0625 33.3125H7.6875C6.32827 33.3125 5.0247 33.8525 4.06358 34.8136C3.10245 35.7747 2.5625 37.0783 2.5625 38.4375V79.4375H33.3125" stroke="#2265B0" stroke-width="2.4" stroke-linecap="round" stroke-linejoin="round"></path><path d="M79.4375 53.8125C79.4491 59.7797 77.4235 65.572 73.6958 70.2316C69.9682 74.8912 64.7617 78.1389 58.9375 79.4375C53.1134 78.1389 47.9069 74.8912 44.1793 70.2316C40.4516 65.572 38.426 59.7797 38.4375 53.8125V43.5625C38.4375 42.2033 38.9775 40.8997 39.9386 39.9386C40.8997 38.9775 42.2033 38.4375 43.5625 38.4375H74.3125C75.6718 38.4375 76.9753 38.9775 77.9365 39.9386C78.8976 40.8997 79.4375 42.2033 79.4375 43.5625V53.8125Z" stroke="#B93B96" stroke-width="2.4" stroke-linecap="round" stroke-linejoin="round"></path></svg>