<svg width="82" height="82" viewBox="0 0 82 82" fill="none" xmlns="http://www.w3.org/2000/svg">
<path d="M56.375 51.25L50.6589 46.9621C50.0754 46.5251 49.4091 46.2116 48.7004 46.0408C47.9918 45.8699 47.2558 45.8453 46.5373 45.9684C45.8188 46.0915 45.133 46.3597 44.5217 46.7568C43.9103 47.1538 43.3863 47.6712 42.9816 48.2775C42.3952 49.1585 42.0823 50.1933 42.0823 51.2517C42.0823 52.3101 42.3952 53.3449 42.9816 54.2259L48.6021 62.6548C50.3291 65.2438 52.8013 67.2477 55.6916 68.4017L64.0625 71.75V79.4375" stroke="#2265B0" stroke-width="2.4" stroke-linecap="round" stroke-linejoin="round"/>
<path d="M54.8125 33.3125L67.0954 38.5776C70.7251 40.1328 73.6172 43.0249 75.1724 46.6546L79.1938 56.0333C80.0137 57.9477 80.4367 60.0085 80.4375 62.0911V79.4375" stroke="#2265B0" stroke-width="2.4" stroke-linecap="round" stroke-linejoin="round"/>
<path d="M54.25 49.3298V10.25C54.25 8.21115 53.4401 6.2558 51.9984 4.81412C50.5567 3.37243 48.6014 2.5625 46.5625 2.5625H10.6875C8.64865 2.5625 6.6933 3.37243 5.25162 4.81412C3.80993 6.2558 3 8.21115 3 10.25V71.75C3 73.7889 3.80993 75.7442 5.25162 77.1859C6.6933 78.6276 8.64865 79.4375 10.6875 79.4375H46.5625C48.6014 79.4375 50.5567 78.6276 51.9984 77.1859C53.4401 75.7442 54.25 73.7889 54.25 71.75V67.4997" stroke="#2265B0" stroke-width="2.4" stroke-linecap="round" stroke-linejoin="round"/>
<path d="M46.125 58.9375H2.5625" stroke="#2265B0" stroke-width="2.4" stroke-linecap="round" stroke-linejoin="round"/>
<path d="M29.4688 69.1875C29.4688 68.8477 29.3338 68.5218 29.0935 68.2815C28.8532 68.0412 28.5273 67.9062 28.1875 67.9062" stroke="#2265B0" stroke-width="2.4" stroke-linecap="round" stroke-linejoin="round"/>
<path d="M28.1875 70.4687C28.3559 70.4692 28.5227 70.4364 28.6783 70.3721C28.834 70.3079 28.9754 70.2135 29.0945 70.0945C29.2135 69.9754 29.3079 69.834 29.3721 69.6783C29.4364 69.5227 29.4692 69.3559 29.4687 69.1875" stroke="#2265B0" stroke-width="2.4" stroke-linecap="round" stroke-linejoin="round"/>
<path d="M26.9063 69.1875C26.9058 69.3559 26.9386 69.5227 27.0029 69.6783C27.0671 69.834 27.1615 69.9754 27.2805 70.0945C27.3996 70.2135 27.541 70.3079 27.6967 70.3721C27.8523 70.4364 28.0191 70.4692 28.1875 70.4687" stroke="#2265B0" stroke-width="2.4" stroke-linecap="round" stroke-linejoin="round"/>
<path d="M28.1875 67.9062C27.8477 67.9062 27.5218 68.0412 27.2815 68.2815C27.0412 68.5218 26.9062 68.8477 26.9062 69.1875" stroke="#2265B0" stroke-width="2.4" stroke-linecap="round" stroke-linejoin="round"/>
<path d="M19.8444 16H35.5889C35.9101 16 36.2181 16.1276 36.4452 16.3547C36.6724 16.5819 36.8 16.8899 36.8 17.2111V43.25H18.6333V17.2111C18.6333 16.8899 18.7609 16.5819 18.988 16.3547C19.2152 16.1276 19.5232 16 19.8444 16Z" stroke="#B93B96" stroke-width="2.4" stroke-linecap="round" stroke-linejoin="round"/>
<path d="M32.2583 29.1708C32.3788 29.1708 32.4943 29.2187 32.5794 29.3039C32.6646 29.389 32.7125 29.5046 32.7125 29.625" stroke="#B93B96" stroke-width="2.4" stroke-linecap="round" stroke-linejoin="round"/>
<path d="M31.8042 29.625C31.8042 29.5046 31.852 29.389 31.9372 29.3039C32.0224 29.2187 32.1379 29.1708 32.2584 29.1708" stroke="#B93B96" stroke-width="2.4" stroke-linecap="round" stroke-linejoin="round"/>
<path d="M32.2584 30.0792C32.1379 30.0792 32.0224 30.0313 31.9372 29.9461C31.852 29.861 31.8042 29.7455 31.8042 29.625" stroke="#B93B96" stroke-width="2.4" stroke-linecap="round" stroke-linejoin="round"/>
<path d="M32.7125 29.625C32.7125 29.7455 32.6646 29.861 32.5794 29.9461C32.4943 30.0313 32.3788 30.0792 32.2583 30.0792" stroke="#B93B96" stroke-width="2.4" stroke-linecap="round" stroke-linejoin="round"/>
<path d="M15 43.25H40.4333" stroke="#B93B96" stroke-width="2.4" stroke-linecap="round" stroke-linejoin="round"/>
</svg>
