<svg xmlns="http://www.w3.org/2000/svg" width="97" height="25" viewBox="0 0 97 25" fill="none">
<path d="M78.3482 12.3019C78.3482 8.48343 78.3559 4.66609 78.3373 0.847661C78.3373 0.410144 78.4171 0.270138 78.8908 0.274513C81.8593 0.298576 84.8279 0.286545 87.7975 0.286545C91.3108 0.286545 94.6403 2.62398 95.8752 5.92395C96.3641 7.22994 96.398 8.59828 96.4428 9.9502C96.5063 11.9103 96.5413 13.8813 96.4122 15.8359C96.1311 20.1203 93.5399 23.0702 89.3332 24.0765C88.838 24.1968 88.3301 24.2574 87.8205 24.257C84.8519 24.2472 81.8834 24.2417 78.9137 24.2636C78.4653 24.2636 78.3351 24.1618 78.3373 23.7014C78.3559 19.9015 78.3482 16.1017 78.3482 12.3019ZM83.197 12.373C83.197 14.6645 83.2167 16.9549 83.1828 19.2453C83.1751 19.7736 83.3491 19.8698 83.8227 19.8545C84.8421 19.8217 85.8626 19.8545 86.8853 19.8414C87.3567 19.8414 87.8303 19.8917 88.2996 19.7736C90.4806 19.2267 91.5645 17.8529 91.6105 15.4574C91.6499 13.458 91.6247 11.4574 91.6105 9.458C91.6035 9.11316 91.5647 8.76971 91.4945 8.43202C91.3058 7.43311 90.7732 6.53186 89.9891 5.88485C89.205 5.23784 88.219 4.88595 87.2025 4.89032C86.0365 4.89032 84.8705 4.90782 83.7024 4.88048C83.2966 4.87063 83.1806 4.97782 83.1839 5.39237C83.208 7.71887 83.197 10.0465 83.197 12.373Z" fill="#233650"/>
<path d="M19.8054 12.4015C19.7814 14.0499 19.9039 15.8317 19.4314 17.5817C18.9688 19.3441 17.9781 20.9227 16.5922 22.1057C15.2063 23.2886 13.4917 24.0191 11.6786 24.1992C7.59433 24.6269 4.31405 23.2487 1.99083 19.824C0.956105 18.2982 0.504375 16.5667 0.5 14.7237C0.5 12.9422 0.5 11.1604 0.5 9.37829C0.506563 5.00312 3.95091 0.934212 8.27577 0.180589C12.395 -0.535845 16.3447 1.06984 18.4174 4.31294C19.3187 5.71032 19.8001 7.337 19.8043 8.99984C19.8131 10.0914 19.8054 11.182 19.8054 12.4015ZM15.066 12.0198C15.0234 10.938 15.1623 9.80924 14.8352 8.70233C14.0422 6.0291 11.4346 4.45513 8.92877 5.22188C7.0201 5.80597 5.95912 7.22133 5.42863 9.07969C5.11143 10.1997 5.24049 11.3526 5.22081 12.4934C5.20549 13.4199 5.20002 14.3452 5.43081 15.2541C6.04115 17.6485 8.02857 19.2859 10.3048 19.2629C12.5405 19.2399 14.3124 17.6933 14.891 15.2596C15.1437 14.203 15.0442 13.1278 15.066 12.0198Z" fill="#233650"/>
<path d="M58.8654 11.7113C58.7965 13.3958 58.9649 14.9096 58.7167 16.4081C58.0166 20.6323 55.3926 23.3143 51.1695 24.139C47.0229 24.9473 42.7156 22.9424 40.7117 19.2705C39.9451 17.861 39.5456 16.2811 39.5501 14.6766C39.5392 12.9265 39.5359 11.1852 39.5501 9.44063C39.5917 3.97167 44.4799 -0.433036 49.9412 0.0340132C53.3669 0.328243 56.0379 1.82455 57.7771 4.83248C58.5427 6.14503 58.8588 7.5954 58.8709 9.1103C58.8709 10.0367 58.8654 10.9632 58.8654 11.7113ZM54.1052 12.162C54.1052 11.3898 54.1271 10.7346 54.1052 10.0838C54.0407 8.45403 53.4074 7.08132 52.1255 6.05644C49.6786 4.10292 46.208 5.06218 44.8605 8.04386C44.0555 9.82455 43.992 14.2653 44.7752 16.0679C45.5944 17.9525 46.9879 19.1382 49.0891 19.253C51.3751 19.3777 53.2203 17.8978 53.8744 15.5724C54.2015 14.4075 54.0768 13.223 54.1052 12.162Z" fill="#233650"/>
<path d="M24.1229 10.1666C24.1229 6.98476 24.1305 3.80182 24.1119 0.618885C24.1119 0.208712 24.2115 0.0982384 24.6227 0.106989C25.8795 0.135427 27.1384 0.137615 28.393 0.106989C28.8415 0.0960508 28.9257 0.249182 28.9257 0.662636C28.9126 6.39192 28.9089 12.1208 28.9148 17.8494C28.9148 18.2924 28.9345 18.7244 29.2024 19.0996C29.4945 19.5065 29.9167 19.6235 30.399 19.6279C32.3679 19.6454 34.3367 19.6881 36.2979 19.687C36.7212 19.687 36.8098 19.8106 36.801 20.2076C36.7758 21.4983 36.7857 22.7901 36.801 24.0818C36.801 24.3586 36.7726 24.5193 36.4258 24.5095C34.1289 24.4504 31.8319 24.6276 29.5448 24.4056C27.9347 24.2492 26.4439 23.7646 25.3107 22.521C24.4751 21.6044 24.1075 20.5084 24.1075 19.279C24.1075 16.2419 24.1075 13.2048 24.1075 10.1677L24.1229 10.1666Z" fill="#233650"/>
<path d="M70.5847 12.2974C70.5847 16.0972 70.577 19.897 70.5956 23.6969C70.5956 24.1541 70.472 24.2744 70.0213 24.2635C68.7471 24.2317 67.4706 24.2416 66.1931 24.2635C65.8398 24.2635 65.6845 24.211 65.6856 23.7986C65.6979 16.1071 65.6979 8.41624 65.6856 0.726147C65.6856 0.353164 65.8059 0.278786 66.1504 0.283161C67.463 0.301756 68.7755 0.309412 70.0881 0.283161C70.5037 0.274411 70.5978 0.392541 70.5956 0.79615C70.5781 4.62442 70.5847 8.46145 70.5847 12.2974Z" fill="#233650"/>
</svg>