<?xml version="1.0" encoding="utf-8"?>
<!-- Generator: Adobe Illustrator 26.5.0, SVG Export Plug-In . SVG Version: 6.00 Build 0)  -->
<svg version="1.1" id="Layer_2_00000083083185290991069080000013659124554742800306_"
	 xmlns="http://www.w3.org/2000/svg" xmlns:xlink="http://www.w3.org/1999/xlink" x="0px" y="0px" width="146px" height="44px"
	 viewBox="0 0 146 44" enable-background="new 0 0 146 44" xml:space="preserve">
<g id="Rectangle_4_00000163057475991480025930000011524124980312312448_">
	<path fill="#FFFFFF" d="M8.3,43.6c-4.3,0-7.9-3.2-7.9-7.1V7.5c0-3.9,3.6-7.1,7.9-7.1h129.4c4.3,0,7.9,3.2,7.9,7.1v29.1
		c0,3.9-3.6,7.1-7.9,7.1H8.3z"/>
	<path fill="#C1C1C1" d="M137.7,0.7c4.1,0,7.5,3,7.5,6.7v29.1c0,3.7-3.3,6.7-7.5,6.7H8.3c-4.1,0-7.5-3-7.5-6.7V7.5
		c0-3.7,3.3-6.7,7.5-6.7H137.7 M137.7,0H8.3C3.7,0,0,3.4,0,7.5v29.1C0,40.6,3.7,44,8.3,44h129.4c4.6,0,8.3-3.4,8.3-7.5V7.5
		C146,3.4,142.3,0,137.7,0L137.7,0z"/>
</g>
<g>
	<g id="Group_43" transform="translate(-280 -772)">
		<g id="Group_41" transform="translate(-155 12)">
			<path id="Path_11" fill="#37373C" d="M486.4,771.2c0,0.8-0.2,1.5-0.8,2c-0.5,0.6-1.4,0.9-2.2,0.9c-1.7,0-3.1-1.3-3.2-3.1
				c0-1.7,1.3-3.1,3.1-3.2h0.1c0.4,0,0.9,0.1,1.2,0.2c0.4,0.2,0.7,0.4,0.9,0.7l-0.5,0.5c-0.4-0.5-1-0.8-1.6-0.7
				c-1.3,0-2.4,1.1-2.4,2.4c0,1.3,1.1,2.4,2.4,2.4c0.6,0,1.2-0.2,1.6-0.7c0.3-0.3,0.5-0.8,0.5-1.2h-2.2v-0.7h2.9
				C486.4,770.9,486.4,771.1,486.4,771.2"/>
			<path id="Path_12" fill="#37373C" d="M486.4,771.2h-0.2c0,0.7-0.2,1.4-0.7,2l0,0c-0.5,0.5-1.3,0.9-2.1,0.9c-1.6,0-3-1.3-3.1-3
				c0-1.6,1.3-3,3-3.1h0.1c0.4,0,0.8,0.1,1.2,0.2c0.3,0.2,0.6,0.4,0.9,0.6l0.1-0.1l-0.1-0.1l-0.5,0.5l0.1,0.1l0.1-0.1
				c-0.4-0.5-1.1-0.8-1.7-0.8c-1.4,0-2.5,1.1-2.5,2.5c0,1.4,1.1,2.5,2.5,2.5c0.6,0,1.2-0.2,1.7-0.7c0.3-0.3,0.5-0.8,0.5-1.2v-0.1
				h-2.2v-0.5h2.8v-0.1h-0.1c0,0.2,0.1,0.3,0.1,0.5H486.4c0.1-0.2,0.1-0.3,0-0.5v-0.1h-3.1v0.9h2.3v-0.1h-0.1c0,0.4-0.2,0.9-0.5,1.2
				c-0.9,0.9-2.3,0.9-3.2,0c-0.9-0.9-0.9-2.4,0-3.4c0.4-0.4,1-0.6,1.6-0.6c0.6,0,1.2,0.2,1.6,0.7l0.1,0.1l0.6-0.6l0.1-0.1l-0.1-0.1
				c-0.2-0.3-0.6-0.5-0.9-0.7c-0.4-0.2-0.9-0.2-1.2-0.2c-1.8,0-3.2,1.5-3.3,3.2c0,1.8,1.5,3.2,3.2,3.3l0,0c0.9,0,1.7-0.3,2.3-0.9
				l-0.1-0.1l0.1,0.1C486.2,772.8,486.4,772,486.4,771.2L486.4,771.2 M491,768.6h-2.7v1.9h2.5v0.7h-2.4v1.9h2.7v0.7h-3.5v-6h3.5
				L491,768.6"/>
			<path id="Path_13" fill="#37373C" d="M491,768.6L491,768.6l-2.8-0.1v2.1h2.5v0.5h-2.5v2.1h2.7v0.5h-3.3v-5.8h3.3L491,768.6
				L491,768.6L491,768.6L491,768.6l0.1-0.9h-3.7v6.2h3.7V773h-2.7v-1.7h2.5v-0.9h-2.5v-1.7H491L491,768.6L491,768.6 M494.2,773.9
				h-0.8v-5.2h-1.6V768h4.1v0.7h-1.6L494.2,773.9"/>
			<path id="Path_14" fill="#37373C" d="M494.2,773.9L494.2,773.9l-0.7-0.1v-5.2h-1.6v-0.5h3.9v0.5h-1.6L494.2,773.9L494.2,773.9
				L494.2,773.9L494.2,773.9l0.1-5.2h1.6v-0.9h-4.2v0.9h1.6v5.2L494.2,773.9L494.2,773.9L494.2,773.9 M498.9,773.9v-6h0.8v6H498.9"
				/>
			<path id="Path_16" fill="#37373C" d="M498.9,773.9L498.9,773.9l0.1-5.9h0.5v5.8h-0.7L498.9,773.9L498.9,773.9L498.9,773.9
				l0.9,0.1v-6.2h-1v6.2L498.9,773.9L498.9,773.9 M503.1,773.9h-0.8v-5.2h-1.6V768h4.1v0.7h-1.6L503.1,773.9"/>
			<path id="Path_17" fill="#37373C" d="M503.1,773.9L503.1,773.9l-0.7-0.1v-5.2h-1.6v-0.5h3.9v0.5H503L503.1,773.9L503.1,773.9
				L503.1,773.9L503.1,773.9l0.1-5.2h1.6v-0.9h-4.3v0.9h1.6v5.2L503.1,773.9L503.1,773.9L503.1,773.9 M508.8,772.7
				c0.9,0.9,2.3,0.9,3.3,0l0,0c0.9-1,0.9-2.5,0-3.4c-0.9-0.9-2.3-0.9-3.3,0l0,0C507.8,770.2,507.8,771.7,508.8,772.7z M512.6,773.2
				c-1.2,1.2-3.2,1.2-4.4,0s-1.2-3.2,0-4.4c1.2-1.2,3.2-1.2,4.4,0l0,0C513.8,770,513.8,771.9,512.6,773.2L512.6,773.2z"/>
			<path id="Path_18" fill="#37373C" d="M508.8,772.7L508.8,772.7c0.9,1,2.4,1,3.4,0.1l0,0c0.9-1,0.9-2.6,0-3.6
				c-0.9-0.9-2.4-0.9-3.4,0l0,0C507.8,770.1,507.8,771.7,508.8,772.7L508.8,772.7L508.8,772.7c-0.8-1-0.8-2.4,0.1-3.4
				c0.9-0.9,2.3-0.9,3.1,0c0.9,0.9,0.9,2.3,0,3.3C511,773.5,509.7,773.5,508.8,772.7L508.8,772.7z M512.6,773.2L512.6,773.2
				c-1.2,1.1-3.1,1.1-4.3-0.1l0,0l0,0c-1.2-1.2-1.2-3.1,0-4.3c1.2-1.2,3-1.2,4.2,0l0,0C513.6,770,513.6,771.9,512.6,773.2
				L512.6,773.2L512.6,773.2c1.2-1.2,1.2-3.2,0.1-4.5c-1.2-1.2-3.3-1.2-4.5,0l0,0l0,0c-1.2,1.3-1.2,3.3,0,4.6l0,0l0,0
				C509.4,774.5,511.4,774.5,512.6,773.2C512.7,773.2,512.7,773.2,512.6,773.2L512.6,773.2z M514.5,773.9v-6h0.9l2.9,4.7l0,0v-1.2
				v-3.5h0.8v6h-0.8l-3-4.9l0,0v1.2v3.7H514.5"/>
			<path id="Path_15" fill="#37373C" d="M514.5,773.9L514.5,773.9l0.1-5.9h0.8l2.9,4.7h0.2v-1.2V768h0.5v5.8h-0.6l-3-4.9h-0.2v1.2
				v3.7h-0.7L514.5,773.9L514.5,773.9L514.5,773.9l0.9,0.1v-3.8V769h-0.1v0.1l0,0V769l-0.1,0.1l3,4.9h0.9v-6.2h-0.9v3.6v1.2h0.1
				v-0.1l0,0v0.1l0.1-0.1l-3-4.7h-1.1v6.2L514.5,773.9L514.5,773.9"/>
		</g>
		<path id="Path_23" fill="#37373C" d="M391.1,804.8h1.9v-12.5h-1.9V804.8z M407.9,796.7l-2.1,5.4h-0.1l-2.2-5.4h-2l3.4,7.6
			l-1.9,4.2h2l5.2-11.8H407.9L407.9,796.7z M397.3,803.3c-0.6,0-1.5-0.3-1.5-1.1c0-0.9,1.1-1.3,2-1.3c0.6,0,1.2,0.2,1.7,0.4
			C399.4,802.5,398.4,803.3,397.3,803.3L397.3,803.3z M397.5,796.5c-1.4-0.1-2.7,0.7-3.4,2l1.6,0.7c0.3-0.6,1-1,1.7-0.9
			c1-0.1,1.9,0.6,2,1.6v0.2c-0.6-0.3-1.2-0.5-2-0.5c-1.8,0-3.6,1-3.6,2.8c0.1,1.6,1.4,2.8,3,2.7h0.1c0.9,0.1,1.9-0.4,2.3-1.2h0.1
			v0.9h1.8V800C401.3,797.7,399.7,796.5,397.5,796.5L397.5,796.5z M386,798.3h-2.7V794h2.7c1.2,0,2.2,0.9,2.2,2.1
			c0.2,1.1-0.6,2-1.7,2.2C386.3,798.3,386.2,798.3,386,798.3L386,798.3z M385.9,792.3h-4.4v12.5h1.9V800h2.6c2.1,0.2,4-1.6,4.1-3.7
			c0.2-2.1-1.6-4-3.7-4.1C386.2,792.3,386.1,792.3,385.9,792.3L385.9,792.3z M361.6,803.3c-1.4-0.2-2.5-1.4-2.3-2.8
			c0.1-1.2,1.1-2.3,2.3-2.3c1.4,0.2,2.4,1.5,2.3,2.9C363.7,802.3,362.7,803.2,361.6,803.3z M363.8,797.4L363.8,797.4
			c-0.6-0.6-1.5-0.9-2.3-0.9c-2.3,0.1-4.1,2.1-4.1,4.4c0.1,2.2,1.9,4,4.1,4.1c0.9,0,1.6-0.3,2.3-0.9h0.1v0.6c0,1.6-0.9,2.5-2.3,2.5
			c-0.9,0-1.8-0.6-2.1-1.5l-1.6,0.7c0.6,1.6,2.1,2.5,3.7,2.5c2.2,0,4.1-1.3,4.1-4.4v-7.7h-1.8L363.8,797.4z M366.8,804.8h1.9v-12.5
			h-1.9V804.8z M371.4,800.6c-0.1-1.2,0.9-2.4,2.2-2.5c0,0,0,0,0.1,0c0.6-0.1,1.2,0.3,1.6,0.9L371.4,800.6z M377.2,799.2
			c-0.5-1.6-2-2.7-3.7-2.7c-2.3,0-4.1,1.9-4,4.1c0,0.1,0,0.2,0,0.2c-0.1,2.3,1.8,4.2,4.1,4.3c0.1,0,0.1,0,0.2,0
			c1.4,0,2.7-0.7,3.5-1.9l-1.5-0.9c-0.5,0.7-1.2,1.2-2.1,1.2s-1.7-0.5-2-1.3l5.7-2.3L377.2,799.2z M331.9,797.8v1.8h4.3
			c-0.1,0.9-0.4,1.6-1,2.3c-0.9,0.9-2.1,1.4-3.4,1.3c-2.7,0-4.8-2.2-4.8-4.8c0-2.6,2.1-4.7,4.8-4.8c1.2,0,2.3,0.5,3.3,1.3l1.2-1.2
			c-1.2-1.2-2.8-1.9-4.5-1.8c-3.7-0.1-6.6,2.9-6.7,6.5c-0.1,3.6,2.9,6.6,6.5,6.7c0.1,0,0.2,0,0.2,0c3.2,0.2,6-2.3,6.2-5.5
			c0-0.2,0-0.4,0-0.5c0-0.4,0-0.8-0.1-1.1L331.9,797.8z M343,803.3c-1.4,0.1-2.7-0.9-2.7-2.4c-0.1-1.4,0.9-2.7,2.4-2.7
			c1.4-0.1,2.7,0.9,2.7,2.4c0,0.1,0,0.2,0,0.2C345.5,802.1,344.4,803.3,343,803.3C343.1,803.3,343,803.3,343,803.3L343,803.3z
			 M343,796.5c-2.3,0-4.2,2-4.2,4.3s2,4.2,4.3,4.2s4.2-1.9,4.2-4.3c0-2.3-1.8-4.2-4.1-4.3C343.1,796.5,343.1,796.5,343,796.5z
			 M352.3,803.3c-1.4,0.1-2.7-0.9-2.7-2.4c-0.1-1.4,0.9-2.7,2.4-2.7c1.4-0.1,2.7,0.9,2.7,2.4c0,0.1,0,0.2,0,0.2
			C354.8,802.1,353.7,803.3,352.3,803.3C352.4,803.3,352.4,803.3,352.3,803.3L352.3,803.3z M352.3,796.5c-2.3,0-4.2,2-4.2,4.3
			s2,4.2,4.3,4.2c2.3,0,4.2-1.9,4.2-4.3c0-2.3-1.8-4.2-4.1-4.3C352.4,796.5,352.4,796.5,352.3,796.5z"/>
	</g>
	<g id="g1231_00000178883547062626182280000006999273622588568715_" transform="translate(0 -.008)">
		
			<linearGradient id="path1192_00000049211700520076089180000002519093612903366568_" gradientUnits="userSpaceOnUse" x1="4090.0771" y1="1058.8188" x2="4076.8801" y2="1052.0066" gradientTransform="matrix(1.3204 0 0 -2.558 -5375.1025 2719.0525)">
			<stop  offset="0" style="stop-color:#00A0FF"/>
			<stop  offset="7.000001e-03" style="stop-color:#00A1FF"/>
			<stop  offset="0.26" style="stop-color:#00BEFF"/>
			<stop  offset="0.512" style="stop-color:#00D2FF"/>
			<stop  offset="0.76" style="stop-color:#00DFFF"/>
			<stop  offset="1" style="stop-color:#00E3FF"/>
		</linearGradient>
		
			<path id="path1192_00000084497385741266689480000008020330164414109101_" fill-rule="evenodd" clip-rule="evenodd" fill="url(#path1192_00000049211700520076089180000002519093612903366568_)" d="
			M13.7,9.3c-0.3,0.3-0.5,0.8-0.5,1.5v23c0,0.6,0.2,1.2,0.5,1.5l0.1,0.1l12.9-12.9v-0.3L13.7,9.3L13.7,9.3z"/>
		
			<linearGradient id="path1203_00000181807153417340191430000013149260857091569063_" gradientUnits="userSpaceOnUse" x1="3886.5085" y1="118.3117" x2="3862.2896" y2="118.3117" gradientTransform="matrix(1.0374 0 0 -0.8735 -3993.8723 125.6401)">
			<stop  offset="0" style="stop-color:#FFE000"/>
			<stop  offset="0.409" style="stop-color:#FFBD00"/>
			<stop  offset="0.775" style="stop-color:#FFA500"/>
			<stop  offset="1" style="stop-color:#FF9C00"/>
		</linearGradient>
		
			<path id="path1203_00000055709167446369311600000006855298756271063438_" fill-rule="evenodd" clip-rule="evenodd" fill="url(#path1203_00000181807153417340191430000013149260857091569063_)" d="
			M30.8,26.7l-4.3-4.3v-0.3l4.3-4.3l0.1,0.1l5.1,2.9c1.5,0.8,1.5,2.2,0,3l-5,2.9C30.9,26.7,30.8,26.7,30.8,26.7L30.8,26.7z"/>
		
			<linearGradient id="path1210_00000143577319444855819700000013783483944814794390_" gradientUnits="userSpaceOnUse" x1="4268.667" y1="592.991" x2="4254.7974" y2="574.9984" gradientTransform="matrix(1.7038 0 0 -1.3133 -7244.4263 803.4504)">
			<stop  offset="0" style="stop-color:#FF3A44"/>
			<stop  offset="1" style="stop-color:#C31162"/>
		</linearGradient>
		
			<path id="path1210_00000172412222964994491480000013947702573848087483_" fill-rule="evenodd" clip-rule="evenodd" fill="url(#path1210_00000143577319444855819700000013783483944814794390_)" d="
			M30.9,26.7l-4.4-4.4l-12.9,13c0.5,0.5,1.2,0.5,2.2,0.1L30.9,26.7"/>
		
			<linearGradient id="path1223_00000120529157010136307360000006442478061909390246_" gradientUnits="userSpaceOnUse" x1="4257.979" y1="608.9983" x2="4264.1719" y2="600.9594" gradientTransform="matrix(1.7038 0 0 -1.3126 -7244.4263 801.0754)">
			<stop  offset="0" style="stop-color:#32A071"/>
			<stop  offset="6.900000e-02" style="stop-color:#2DA771"/>
			<stop  offset="0.476" style="stop-color:#15CF74"/>
			<stop  offset="0.801" style="stop-color:#06E775"/>
			<stop  offset="1" style="stop-color:#00F076"/>
		</linearGradient>
		
			<path id="path1223_00000031909505121803394400000017520584963283592109_" fill-rule="evenodd" clip-rule="evenodd" fill="url(#path1223_00000120529157010136307360000006442478061909390246_)" d="
			M30.9,17.9L15.8,9.3c-0.9-0.5-1.7-0.5-2.2,0.1l13,13L30.9,17.9z"/>
		
			<path id="path1225_00000127733170265175523380000014773234146332731800_" opacity="0.2" fill-rule="evenodd" clip-rule="evenodd" enable-background="new    " d="
			M30.8,26.6l-15.1,8.6c-0.9,0.5-1.6,0.5-2.1,0l-0.1,0.1l0.1,0.1c0.5,0.5,1.2,0.5,2.1,0l15.1-8.6L30.8,26.6z"/>
		
			<path id="path1227_00000012459173178052686710000013095472247730176647_" opacity="0.12" fill-rule="evenodd" clip-rule="evenodd" enable-background="new    " d="
			M36.1,23.6l-5.2,3l0.1,0.1l5.1-2.9c0.7-0.4,1.1-0.9,1.1-1.5C37,22.8,36.7,23.2,36.1,23.6L36.1,23.6z"/>
		
			<path id="path1229_00000008141142484662389760000016751927498739523256_" opacity="0.25" fill-rule="evenodd" clip-rule="evenodd" fill="#FFFFFF" enable-background="new    " d="
			M15.8,9.4L36.1,21c0.6,0.4,1,0.9,1.1,1.3c0-0.5-0.4-1.1-1.1-1.5L15.8,9.3c-1.5-0.9-2.7-0.2-2.7,1.6V11C13.1,9.3,14.4,8.6,15.8,9.4
			z"/>
	</g>
</g>
</svg>
